<svg width="102" height="26" viewBox="0 0 102 26" fill="none" xmlns="http://www.w3.org/2000/svg">
<path fill-rule="evenodd" clip-rule="evenodd" d="M50.0149 0.022117C49.4556 0.108514 48.8778 0.292575 48.3463 0.553796C47.7849 0.829569 47.5707 1.02664 41.8328 6.54656C37.8283 10.3991 35.8533 12.3467 35.7567 12.5387C35.5766 12.8965 35.5758 13.1345 35.7538 13.4638C35.9276 13.7854 47.4126 24.8463 47.8974 25.1588C49.1357 25.9575 50.5762 26.1798 51.9224 25.78C53.2072 25.3986 53.2065 25.3992 59.1883 19.4665C62.1586 16.5205 64.6519 14.0142 64.7288 13.8971C64.8392 13.729 64.862 13.5952 64.8371 13.2629C64.8092 12.8897 64.775 12.8123 64.5372 12.583L64.2688 12.3242L56.7369 12.3057L49.205 12.2873L48.9644 12.4457C48.6092 12.6795 48.4372 13.025 48.4874 13.404C48.5374 13.7809 48.6782 14.0007 48.985 14.1812C49.21 14.3134 49.3984 14.3175 55.299 14.3177C59.0248 14.3179 61.3719 14.3433 61.357 14.3832C61.3005 14.5355 52.403 23.294 52.1019 23.4938C51.7074 23.7554 51.028 23.9721 50.602 23.9721C50.1824 23.9721 49.573 23.7906 49.1806 23.5486C49.001 23.4379 46.4399 21.0183 43.4893 18.1716L38.1244 12.996L43.5255 7.77656C48.2338 3.22666 48.9827 2.53051 49.3634 2.3496C49.8966 2.09622 50.4601 2.00261 51.0051 2.07691C51.8825 2.19647 51.8286 2.15232 56.0004 6.16516C60.3356 10.3353 60.1723 10.2078 60.8377 9.94006C61.0707 9.84632 61.2122 9.73215 61.3065 9.56201C61.4674 9.27183 61.4821 8.78821 61.3381 8.52552C61.2811 8.42163 59.4773 6.64863 57.3297 4.58552C53.1131 0.534976 53.0932 0.518536 51.9787 0.191135C51.4835 0.0456238 50.4425 -0.0439929 50.0149 0.022117ZM21.9341 0.491183C21.6401 0.619555 21.3367 0.976757 21.285 1.25547C21.262 1.37943 21.2526 6.83815 21.264 13.386C21.2847 25.2855 21.2848 25.2912 21.4344 25.4843C21.5166 25.5905 21.6741 25.7423 21.7843 25.8217C21.9833 25.9649 22.0356 25.9661 29.6515 25.9838C36.8405 26.0006 37.3343 25.994 37.571 25.8789C38.147 25.5986 38.3482 24.8364 37.9628 24.3947C37.5713 23.946 38.0383 23.9721 30.3943 23.9721H23.4267L23.4077 12.5392C23.3887 1.11527 23.3886 1.10611 23.2391 0.913097C22.8952 0.469007 22.3723 0.299919 21.9341 0.491183ZM70.1493 0.519027C69.617 0.77689 69.4135 1.41623 69.7 1.93119C69.8921 2.27671 70.2282 2.42523 70.8177 2.42523H71.3086V13.1987V23.9721L70.8189 23.9724C70.4583 23.9726 70.2669 24.0093 70.0927 24.1117C69.3762 24.5329 69.4078 25.5192 70.1493 25.8783C70.3713 25.9859 70.6384 26.0005 72.3606 25.9992C74.1454 25.998 74.3472 25.9857 74.631 25.8615C75.193 25.6156 75.3764 24.8898 75.0039 24.3854C74.7974 24.1057 74.4378 23.9721 73.8914 23.9721H73.4126V13.1987V2.42523L73.9023 2.42509C74.4488 2.42502 74.8056 2.29098 75.0236 2.00387C75.3849 1.52788 75.1844 0.778009 74.631 0.535816C74.3472 0.411641 74.1454 0.399398 72.3606 0.398138C70.6384 0.396879 70.3713 0.411432 70.1493 0.519027ZM79.9639 0.533579C79.4707 0.823482 79.5069 -0.176421 79.5072 13.1777C79.5074 25.1887 79.5083 25.2678 79.6542 25.4985C79.8472 25.8038 80.3662 26.0316 80.722 25.9673C81.0405 25.9097 81.2707 25.768 81.4426 25.5239C81.5685 25.3449 81.5763 24.8092 81.6109 13.8633L81.6471 2.39025L85.6374 2.39438L89.6277 2.39858L90.6797 2.59711C92.3056 2.90394 94.0776 3.63193 95.2218 4.46323C96.2268 5.19324 97.3356 6.24568 97.7496 6.86221C98.8128 8.44563 98.8439 8.50173 99.1908 9.46274C99.7253 10.9435 99.9744 12.7732 99.8293 14.1542C99.7109 15.2817 99.2764 16.9064 98.8969 17.641C98.2454 18.902 97.5 19.9068 96.6118 20.7212C95.8766 21.3953 94.8677 22.2232 94.7815 22.2232C94.7567 22.2232 94.3488 22.4271 93.8751 22.6763C92.1418 23.5879 90.3519 23.972 87.8349 23.9723C86.5323 23.9723 86.2987 24.0288 86.0053 24.4145C85.799 24.6858 85.8002 25.22 86.0078 25.4886C86.3386 25.9165 86.4763 25.9468 88.1256 25.9549C90.063 25.9645 90.9356 25.8628 92.3353 25.4645C94.3963 24.8782 95.4637 24.3418 97.036 23.1028C98.4016 22.0265 99.2073 21.1417 100.161 19.6697C100.562 19.0518 101.374 17.1532 101.657 16.1719C102.125 14.5493 102.113 11.9221 101.629 10.0856C101.117 8.13908 99.7027 5.73268 98.2441 4.32597C96.9736 3.10074 96.121 2.48931 94.7063 1.78883C93.1272 1.00691 92.0722 0.696647 90.321 0.499087C89.6121 0.419125 88.393 0.396532 84.8035 0.396742C80.3618 0.396952 80.1878 0.401919 79.9639 0.533579ZM0.53518 0.59661C0.119753 0.84405 0.0273239 1.00313 0.0273965 1.47066V1.90055L3.6371 7.55577C5.62245 10.6662 7.23497 13.2319 7.22061 13.2573C7.20617 13.2828 5.62695 15.7749 3.71117 18.7953C1.79539 21.8157 0.171047 24.3945 0.101398 24.5259C-0.0696049 24.8488 -0.0176584 25.3838 0.207104 25.6145C0.60345 26.0213 0.173441 26.001 8.38164 25.9994C15.6544 25.9979 15.9266 25.9931 16.2228 25.8635C17.0103 25.5188 17.021 24.4725 16.241 24.0947C16.0062 23.9809 15.5315 23.9723 9.47708 23.9723C5.89575 23.9722 2.96564 23.9511 2.96564 23.9255C2.96564 23.8999 3.10849 23.6559 3.28312 23.3834C4.29201 21.8085 7.5917 16.6007 8.04079 15.8746C8.33223 15.4033 8.59508 15.0176 8.62483 15.0176C8.65465 15.0176 9.31783 15.6157 10.0987 16.3468L11.5184 17.676H11.8526C12.0364 17.676 12.2749 17.6296 12.3827 17.5728C12.4905 17.5161 13.4389 16.6405 14.4905 15.6271C16.3639 13.8214 16.4031 13.7779 16.4405 13.4577C16.4626 13.269 16.4405 13.042 16.3881 12.9202C16.2999 12.7149 12.6648 9.20922 12.3964 9.07077C12.2158 8.97759 11.6283 8.98234 11.4312 9.07867C11.344 9.12128 10.7099 9.69507 10.0222 10.3538C8.94057 11.3896 8.75818 11.5375 8.67293 11.4481C8.61866 11.3913 8.22152 10.7782 7.79035 10.0856C7.35925 9.39299 6.11312 7.43474 5.0213 5.73394C3.92955 4.03313 3.01686 2.59292 2.99313 2.53338C2.95454 2.43628 3.62462 2.42523 9.54187 2.42495C15.9517 2.42474 16.14 2.42096 16.3659 2.28811C17.0336 1.89558 16.9563 0.930098 16.2279 0.56471C16.0633 0.48209 14.8126 0.46649 8.39245 0.4667C1.08163 0.46691 0.743474 0.472506 0.53518 0.59661ZM10.9008 12.309L9.90347 13.2454L10.0571 13.4494C10.1415 13.5616 10.5883 14.0149 11.0501 14.4569L11.8896 15.2603L12.9055 14.2827C13.4642 13.745 13.9131 13.2856 13.9029 13.2618C13.8928 13.238 13.4376 12.8031 12.8913 12.2955L11.8981 11.3726L10.9008 12.309Z" fill="white"/>
</svg>
