<svg width="102" height="52" viewBox="0 0 102 52" fill="none" xmlns="http://www.w3.org/2000/svg">
<path fill-rule="evenodd" clip-rule="evenodd" d="M50.0149 12.0221C49.4556 12.1085 48.8778 12.2926 48.3463 12.5538C47.7849 12.8296 47.5707 13.0266 41.8328 18.5466C37.8283 22.3991 35.8533 24.3467 35.7567 24.5387C35.5766 24.8965 35.5758 25.1345 35.7538 25.4638C35.9276 25.7854 47.4126 36.8463 47.8974 37.1588C49.1357 37.9575 50.5762 38.1798 51.9224 37.78C53.2072 37.3986 53.2065 37.3992 59.1883 31.4665C62.1586 28.5205 64.6519 26.0142 64.7288 25.8971C64.8392 25.729 64.862 25.5952 64.8371 25.2629C64.8092 24.8897 64.775 24.8123 64.5372 24.583L64.2688 24.3242L56.7369 24.3057L49.205 24.2873L48.9644 24.4457C48.6092 24.6795 48.4372 25.025 48.4874 25.404C48.5374 25.7809 48.6782 26.0007 48.985 26.1812C49.21 26.3134 49.3984 26.3175 55.299 26.3177C59.0248 26.3179 61.3719 26.3433 61.357 26.3832C61.3005 26.5355 52.403 35.294 52.1019 35.4938C51.7074 35.7554 51.028 35.9721 50.602 35.9721C50.1824 35.9721 49.573 35.7906 49.1806 35.5486C49.001 35.4379 46.4399 33.0183 43.4893 30.1716L38.1244 24.996L43.5255 19.7766C48.2338 15.2267 48.9827 14.5305 49.3634 14.3496C49.8966 14.0962 50.4601 14.0026 51.0051 14.0769C51.8825 14.1965 51.8286 14.1523 56.0004 18.1652C60.3356 22.3353 60.1723 22.2078 60.8377 21.9401C61.0707 21.8463 61.2122 21.7321 61.3065 21.562C61.4674 21.2718 61.4821 20.7882 61.3381 20.5255C61.2811 20.4216 59.4773 18.6486 57.3297 16.5855C53.1131 12.535 53.0932 12.5185 51.9787 12.1911C51.4835 12.0456 50.4425 11.956 50.0149 12.0221ZM21.9341 12.4912C21.6401 12.6196 21.3367 12.9768 21.285 13.2555C21.262 13.3794 21.2526 18.8381 21.264 25.386C21.2848 37.2855 21.2848 37.2912 21.4344 37.4843C21.5166 37.5905 21.6741 37.7423 21.7843 37.8217C21.9833 37.9649 22.0356 37.9661 29.6515 37.9838C36.8405 38.0006 37.3342 37.994 37.571 37.8789C38.147 37.5986 38.3482 36.8364 37.9628 36.3947C37.5713 35.946 38.0383 35.9721 30.3943 35.9721H23.4267L23.4077 24.5392C23.3887 13.1153 23.3886 13.1061 23.2391 12.9131C22.8952 12.469 22.3723 12.2999 21.9341 12.4912ZM70.1493 12.519C69.617 12.7769 69.4135 13.4162 69.7 13.9312C69.8921 14.2767 70.2282 14.4252 70.8177 14.4252H71.3086V25.1987V35.9721L70.8189 35.9724C70.4583 35.9726 70.2669 36.0093 70.0927 36.1117C69.3762 36.5329 69.4078 37.5192 70.1493 37.8783C70.3713 37.9859 70.6384 38.0005 72.3606 37.9992C74.1454 37.998 74.3472 37.9857 74.6309 37.8615C75.193 37.6156 75.3764 36.8898 75.0039 36.3854C74.7974 36.1057 74.4378 35.9721 73.8914 35.9721H73.4126V25.1987V14.4252L73.9023 14.4251C74.4488 14.425 74.8057 14.291 75.0236 14.0039C75.3849 13.5279 75.1844 12.778 74.6309 12.5358C74.3472 12.4116 74.1454 12.3994 72.3606 12.3981C70.6384 12.3969 70.3713 12.4114 70.1493 12.519ZM79.9639 12.5336C79.4707 12.8235 79.5069 11.8236 79.5072 25.1777C79.5074 37.1887 79.5083 37.2678 79.6542 37.4985C79.8472 37.8038 80.3662 38.0316 80.722 37.9673C81.0405 37.9097 81.2707 37.768 81.4426 37.5239C81.5685 37.3449 81.5763 36.8092 81.6109 25.8633L81.6471 14.3902L85.6374 14.3944L89.6277 14.3986L90.6797 14.5971C92.3056 14.9039 94.0776 15.6319 95.2218 16.4632C96.2268 17.1932 97.3356 18.2457 97.7496 18.8622C98.8128 20.4456 98.8439 20.5017 99.1908 21.4627C99.7253 22.9435 99.9744 24.7732 99.8293 26.1542C99.7109 27.2817 99.2764 28.9064 98.8969 29.641C98.2454 30.902 97.5 31.9068 96.6118 32.7212C95.8766 33.3953 94.8677 34.2232 94.7815 34.2232C94.7567 34.2232 94.3488 34.4271 93.8751 34.6763C92.1418 35.5879 90.3519 35.972 87.8349 35.9723C86.5323 35.9723 86.2987 36.0288 86.0053 36.4145C85.799 36.6858 85.8002 37.22 86.0078 37.4886C86.3386 37.9165 86.4763 37.9468 88.1256 37.9549C90.063 37.9645 90.9356 37.8628 92.3353 37.4645C94.3963 36.8782 95.4637 36.3418 97.036 35.1028C98.4016 34.0265 99.2073 33.1417 100.161 31.6697C100.562 31.0518 101.374 29.1532 101.657 28.1719C102.125 26.5493 102.113 23.9221 101.629 22.0856C101.117 20.1391 99.7027 17.7327 98.2441 16.326C96.9736 15.1007 96.121 14.4893 94.7063 13.7888C93.1272 13.0069 92.0722 12.6966 90.321 12.4991C89.6121 12.4191 88.393 12.3965 84.8035 12.3967C80.3618 12.397 80.1878 12.4019 79.9639 12.5336ZM0.53518 12.5966C0.119753 12.8441 0.0273239 13.0031 0.0273965 13.4707V13.9005L3.6371 19.5558C5.62245 22.6662 7.23497 25.2319 7.22061 25.2573C7.20617 25.2828 5.62695 27.7749 3.71117 30.7953C1.79539 33.8157 0.171047 36.3945 0.101398 36.5259C-0.0696049 36.8488 -0.0176584 37.3838 0.207104 37.6145C0.60345 38.0213 0.173441 38.001 8.38164 37.9994C15.6544 37.9979 15.9266 37.9931 16.2228 37.8635C17.0103 37.5188 17.021 36.4725 16.241 36.0947C16.0062 35.981 15.5315 35.9723 9.47708 35.9723C5.89575 35.9722 2.96564 35.9511 2.96564 35.9255C2.96564 35.8999 3.10849 35.6559 3.28312 35.3834C4.29201 33.8085 7.5917 28.6007 8.04079 27.8746C8.33223 27.4033 8.59508 27.0176 8.62483 27.0176C8.65465 27.0176 9.31783 27.6157 10.0987 28.3468L11.5184 29.676H11.8526C12.0364 29.676 12.2749 29.6296 12.3827 29.5728C12.4905 29.5161 13.4389 28.6405 14.4905 27.6271C16.3639 25.8214 16.4031 25.7779 16.4405 25.4577C16.4626 25.269 16.4405 25.042 16.3881 24.9202C16.2999 24.7149 12.6648 21.2092 12.3964 21.0708C12.2158 20.9776 11.6283 20.9823 11.4312 21.0787C11.344 21.1213 10.7099 21.6951 10.0222 22.3538C8.94057 23.3896 8.75818 23.5375 8.67293 23.4481C8.61866 23.3913 8.22152 22.7782 7.79035 22.0856C7.35925 21.393 6.11312 19.4347 5.0213 17.7339C3.92955 16.0331 3.01686 14.5929 2.99313 14.5334C2.95454 14.4363 3.62462 14.4252 9.54187 14.4249C15.9517 14.4247 16.14 14.421 16.3659 14.2881C17.0336 13.8956 16.9563 12.9301 16.2279 12.5647C16.0633 12.4821 14.8126 12.4665 8.39245 12.4667C1.08163 12.4669 0.743474 12.4725 0.53518 12.5966ZM10.9008 24.309L9.90347 25.2454L10.0571 25.4494C10.1415 25.5616 10.5883 26.0149 11.0501 26.4569L11.8896 27.2603L12.9055 26.2827C13.4642 25.745 13.9131 25.2856 13.9029 25.2618C13.8928 25.238 13.4376 24.8031 12.8913 24.2955L11.8981 23.3726L10.9008 24.309Z" fill="#033559"/>
</svg>
