<svg width="42" height="43" viewBox="0 0 42 43" fill="none" xmlns="http://www.w3.org/2000/svg">
<path fill-rule="evenodd" clip-rule="evenodd" d="M22.325 0.520862C22.0347 0.245676 21.65 0.0922852 21.25 0.0922852C20.85 0.0922852 20.4653 0.245676 20.175 0.520862C15.7527 4.72061 9.86277 7.02363 3.7646 6.93753C3.43238 6.93321 3.10743 7.0349 2.83694 7.22784C2.56645 7.42078 2.36451 7.69492 2.26043 8.01045C1.38121 10.69 0.934635 13.4925 0.937514 16.3125C0.937514 28.6917 9.40418 39.0896 20.8604 42.0375C21.116 42.1034 21.3841 42.1034 21.6396 42.0375C33.0958 39.0896 41.5625 28.6917 41.5625 16.3125C41.5625 13.4167 41.0979 10.625 40.2396 8.01045C40.1359 7.69453 39.9341 7.41994 39.6636 7.2266C39.393 7.03327 39.0679 6.93127 38.7354 6.93545L38.4375 6.93753C32.1958 6.93753 26.5271 4.50003 22.325 0.520862ZM28.7708 17.2209C28.8958 17.0543 28.9863 16.8644 29.0369 16.6624C29.0874 16.4604 29.0971 16.2503 29.0653 16.0445C29.0336 15.8387 28.9609 15.6413 28.8518 15.464C28.7426 15.2866 28.5991 15.1329 28.4297 15.0118C28.2603 14.8907 28.0684 14.8047 27.8652 14.7588C27.6621 14.713 27.4519 14.7082 27.2468 14.7447C27.0418 14.7813 26.8462 14.8585 26.6714 14.9717C26.4967 15.085 26.3463 15.232 26.2292 15.4042L19.4875 24.8417L16.1042 21.4584C15.808 21.1824 15.4162 21.0321 15.0114 21.0392C14.6066 21.0464 14.2204 21.2104 13.9341 21.4967C13.6479 21.7829 13.4839 22.1691 13.4767 22.5739C13.4696 22.9787 13.6198 23.3705 13.8958 23.6667L18.5833 28.3542C18.7437 28.5145 18.9371 28.6379 19.15 28.716C19.3629 28.794 19.5902 28.8248 19.8162 28.8061C20.0422 28.7875 20.2614 28.7199 20.4586 28.608C20.6558 28.4962 20.8264 28.3427 20.9583 28.1584L28.7708 17.2209Z" fill="white"/>
</svg>
