<svg width="38" height="42" viewBox="0 0 38 42" fill="none" xmlns="http://www.w3.org/2000/svg">
<path fill-rule="evenodd" clip-rule="evenodd" d="M21.2562 0.76232C21.1306 0.59407 20.9725 0.452845 20.7911 0.347078C20.6098 0.241311 20.409 0.17317 20.2007 0.146725C19.9925 0.120279 19.781 0.136071 19.579 0.193158C19.377 0.250245 19.1886 0.347456 19.0249 0.478986C15.0323 3.68435 12.3987 8.28031 11.652 13.3457C10.2836 12.3534 9.08421 11.1469 8.09993 9.77274C7.96625 9.58587 7.79299 9.43078 7.59252 9.31852C7.39204 9.20627 7.16927 9.13961 6.94008 9.1233C6.7109 9.10698 6.48093 9.14142 6.26657 9.22414C6.05222 9.30687 5.85874 9.43585 5.69993 9.6019C2.94852 12.4801 1.18482 16.1596 0.664325 20.1072C0.14383 24.0548 0.893563 28.0656 2.80492 31.5587C4.71628 35.0517 7.69002 37.8456 11.2954 39.5356C14.9007 41.2256 18.9505 41.7239 22.858 40.9584C26.7655 40.193 30.3279 38.2034 33.0291 35.278C35.7303 32.3526 37.4301 28.6432 37.8822 24.6872C38.3343 20.7312 37.5153 16.7339 35.5438 13.2745C33.5723 9.81502 30.5506 7.07302 26.9166 5.44565C24.6826 4.35934 22.7416 2.75336 21.2562 0.76232ZM27.0624 25.6873C27.0617 26.8174 26.8157 27.9338 26.3416 28.9596C25.8675 29.9854 25.1765 30.8962 24.3163 31.629C23.456 32.3618 22.447 32.8993 21.3589 33.2044C20.2708 33.5094 19.1295 33.5748 18.0137 33.396C16.8978 33.2172 15.8341 32.7984 14.8958 32.1686C13.9575 31.5388 13.167 30.7129 12.5789 29.7479C11.9908 28.783 11.619 27.7019 11.4892 26.5793C11.3593 25.4567 11.4746 24.3194 11.827 23.2457C13.1354 24.2144 14.6395 24.9332 16.2708 25.329C16.713 22.4768 18.1303 19.8661 20.2812 17.9415C22.1583 18.1915 23.8807 19.1147 25.1281 20.5395C26.3754 21.9643 27.0628 23.7937 27.0624 25.6873Z" fill="white"/>
</svg>
