<svg width="47" height="43" viewBox="0 0 47 43" fill="none" xmlns="http://www.w3.org/2000/svg">
<path d="M17.2812 3.25019C16.2452 3.25019 15.2517 3.66174 14.5191 4.3943C13.7865 5.12686 13.375 6.12043 13.375 7.15644C13.375 8.19244 13.7865 9.18601 14.5191 9.91857C15.2517 10.6511 16.2452 11.0627 17.2812 11.0627H21.1875V20.4377H4.78125C3.74525 20.4377 2.75168 20.0261 2.01911 19.2936C1.28655 18.561 0.875 17.5674 0.875 16.5314V14.9689C0.875 12.8106 2.625 11.0627 4.78125 11.0627H11.4333C10.4204 9.55801 10.0282 7.72011 10.3386 5.93303C10.649 4.14595 11.638 2.54796 13.0989 1.47295C14.5599 0.397953 16.3798 -0.0708812 18.1783 0.164418C19.9768 0.399717 21.6148 1.32094 22.75 2.7356C23.8852 1.32094 25.5232 0.399717 27.3217 0.164418C29.1202 -0.0708812 30.9401 0.397953 32.4011 1.47295C33.862 2.54796 34.851 4.14595 35.1614 5.93303C35.4718 7.72011 35.0796 9.55801 34.0667 11.0627H42.2812C44.4375 11.0627 46.1875 12.8127 46.1875 14.9689V16.5314C46.1875 18.6898 44.4375 20.4377 42.2812 20.4377H24.3125V11.0627H28.2187C28.9913 11.0627 29.7466 10.8336 30.3889 10.4044C31.0313 9.97514 31.532 9.36507 31.8277 8.65129C32.1233 7.93752 32.2007 7.1521 32.0499 6.39436C31.8992 5.63663 31.5272 4.9406 30.9809 4.3943C30.4346 3.848 29.7386 3.47597 28.9808 3.32524C28.2231 3.17452 27.4377 3.25188 26.7239 3.54753C26.0101 3.84319 25.4 4.34386 24.9708 4.98624C24.5416 5.62862 24.3125 6.38385 24.3125 7.15644V11.0627H21.1875V7.15644C21.1875 4.9981 19.4375 3.25019 17.2812 3.25019ZM21.1875 23.5627H4V37.6252C4 38.8684 4.49386 40.0607 5.37294 40.9397C6.25201 41.8188 7.4443 42.3127 8.6875 42.3127H21.1875V23.5627ZM24.3125 23.5627V42.3127H38.375C39.6182 42.3127 40.8105 41.8188 41.6896 40.9397C42.5686 40.0607 43.0625 38.8684 43.0625 37.6252V23.5627H24.3125Z" fill="white"/>
</svg>
