<svg width="35" height="43" viewBox="0 0 35 43" fill="none" xmlns="http://www.w3.org/2000/svg">
<path fill-rule="evenodd" clip-rule="evenodd" d="M16.7917 42.5646L16.9375 42.6479L16.9958 42.6812C17.2272 42.8063 17.486 42.8718 17.749 42.8718C18.0119 42.8718 18.2708 42.8063 18.5021 42.6812L18.5604 42.65L18.7083 42.5646C19.5232 42.0814 20.3182 41.5657 21.0917 41.0187C23.0939 39.6052 24.9647 38.014 26.6812 36.2646C30.7313 32.1187 34.9375 25.8896 34.9375 17.875C34.9375 13.3166 33.1267 8.94488 29.9034 5.7216C26.6801 2.49832 22.3084 0.6875 17.75 0.6875C13.1916 0.6875 8.81988 2.49832 5.5966 5.7216C2.37332 8.94488 0.5625 13.3166 0.5625 17.875C0.5625 25.8875 4.77083 32.1187 8.81875 36.2646C10.5347 38.0139 12.4047 39.6051 14.4062 41.0187C15.1804 41.5658 15.9761 42.0815 16.7917 42.5646ZM17.75 24.125C19.4076 24.125 20.9973 23.4665 22.1694 22.2944C23.3415 21.1223 24 19.5326 24 17.875C24 16.2174 23.3415 14.6277 22.1694 13.4556C20.9973 12.2835 19.4076 11.625 17.75 11.625C16.0924 11.625 14.5027 12.2835 13.3306 13.4556C12.1585 14.6277 11.5 16.2174 11.5 17.875C11.5 19.5326 12.1585 21.1223 13.3306 22.2944C14.5027 23.4665 16.0924 24.125 17.75 24.125Z" fill="white"/>
</svg>
